<?xml version="1.0" standalone="no"?>
<!DOCTYPE svg PUBLIC "-//W3C//DTD SVG 20010904//EN"
 "http://www.w3.org/TR/2001/REC-SVG-20010904/DTD/svg10.dtd">
<svg version="1.0" xmlns="http://www.w3.org/2000/svg"
 width="512.000000pt" height="512.000000pt" viewBox="0 0 512.000000 512.000000"
 preserveAspectRatio="xMidYMid meet">

<g transform="translate(0.000000,512.000000) scale(0.100000,-0.100000)"
fill="#000000" stroke="none">
<path d="M185 4821 c-74 -18 -131 -67 -164 -141 -20 -45 -21 -54 -21 -2115 0
-1429 3 -2082 11 -2108 13 -47 69 -111 123 -140 l41 -22 2385 0 2385 0 40 22
c22 12 54 36 72 55 68 70 63 -96 63 2192 0 2062 -1 2071 -21 2116 -25 55 -62
95 -114 123 l-40 22 -2365 2 c-1301 0 -2378 -2 -2395 -6z m4749 -172 l26 -20
0 -365 0 -364 -2400 0 -2400 0 0 364 0 365 26 20 27 21 2347 0 2347 0 27 -21z
m26 -2531 l0 -1622 -22 -23 -21 -23 -2357 0 -2356 0 -22 20 -22 21 0 1624 0
1625 2400 0 2400 0 0 -1622z"/>
<path d="M509 4341 c-17 -13 -23 -29 -23 -56 0 -62 26 -75 150 -75 120 0 144
12 144 75 0 63 -24 75 -144 75 -87 0 -108 -3 -127 -19z"/>
<path d="M1067 4348 c-40 -31 -36 -115 8 -132 26 -10 204 -7 225 4 43 23 44
106 1 129 -28 16 -213 14 -234 -1z"/>
<path d="M1610 4340 c-28 -28 -26 -81 3 -108 21 -20 34 -22 124 -22 114 0 138
11 149 67 5 26 1 37 -19 57 -25 25 -32 26 -132 26 -92 0 -108 -3 -125 -20z"/>
<path d="M2339 4341 c-17 -13 -23 -29 -23 -56 0 -27 6 -43 23 -56 22 -18 64
-19 1136 -19 1072 0 1114 1 1136 19 32 26 32 86 0 112 -22 18 -64 19 -1136 19
-1072 0 -1114 -1 -1136 -19z"/>
<path d="M425 3475 l-25 -24 0 -1356 c0 -1336 0 -1355 20 -1375 11 -11 30 -22
42 -25 13 -3 967 -4 2121 -3 l2099 3 19 24 c18 23 19 59 19 1378 l0 1354 -25
24 -24 25 -2111 0 -2111 0 -24 -25z m4145 -1380 l0 -1245 -2010 0 -2010 0 0
1245 0 1245 2010 0 2010 0 0 -1245z"/>
<path d="M2736 2881 c-15 -6 -81 -181 -293 -777 l-274 -769 21 -17 c26 -21
118 -25 168 -7 25 9 34 20 50 67 11 31 133 375 271 763 138 389 251 712 251
718 0 5 -9 15 -19 21 -22 11 -146 12 -175 1z"/>
<path d="M3049 2503 c-13 -35 -7 -146 9 -166 7 -8 127 -68 267 -133 141 -64
252 -121 248 -125 -5 -4 -120 -60 -258 -124 -137 -64 -254 -121 -260 -126 -13
-13 -13 -165 1 -179 7 -7 114 41 366 164 196 96 359 179 362 184 13 22 17 99
7 137 l-10 40 -328 164 c-423 211 -391 198 -404 164z"/>
<path d="M1678 2345 l-347 -174 -7 -46 c-8 -60 1 -115 23 -135 10 -9 172 -92
360 -185 275 -135 345 -167 355 -156 19 18 15 156 -5 179 -9 9 -129 69 -266
132 -138 63 -251 117 -251 120 0 3 106 54 236 115 310 144 290 130 298 201 8
73 -3 118 -30 121 -10 1 -175 -76 -366 -172z"/>
</g>
</svg>
