<?xml version="1.0" standalone="no"?>
<!DOCTYPE svg PUBLIC "-//W3C//DTD SVG 20010904//EN"
 "http://www.w3.org/TR/2001/REC-SVG-20010904/DTD/svg10.dtd">
<svg version="1.0" xmlns="http://www.w3.org/2000/svg"
 width="512.000000pt" height="512.000000pt" viewBox="0 0 512.000000 512.000000"
 preserveAspectRatio="xMidYMid meet">

<g transform="translate(0.000000,512.000000) scale(0.100000,-0.100000)"
fill="#000000" stroke="none">
<path d="M190 4941 c-69 -21 -130 -73 -166 -141 -18 -34 -19 -98 -22 -1709 -1
-1133 1 -1685 8 -1712 16 -57 69 -120 130 -154 l55 -30 794 -3 793 -3 -5 -32
c-4 -18 -18 -132 -33 -254 l-27 -223 -64 0 c-55 0 -68 -4 -88 -25 -24 -23 -25
-28 -25 -170 l0 -145 -175 0 -176 0 3 -82 3 -83 1365 0 1365 0 3 83 3 82 -176
0 -175 0 0 145 c0 142 -1 147 -25 170 -20 21 -33 25 -88 25 l-64 0 -27 223
c-15 122 -29 236 -33 254 l-5 32 793 3 794 3 51 27 c29 15 66 44 83 65 65 79
61 -41 59 1803 -3 1612 -4 1676 -22 1710 -26 49 -74 98 -121 123 l-40 22
-2360 2 c-1298 1 -2371 -2 -2385 -6z m4731 -190 l29 -29 0 -1336 0 -1336
-2390 0 -2390 0 0 1336 0 1336 29 29 29 29 2332 0 2332 0 29 -29z m27 -3107
c-3 -234 -3 -236 -27 -255 -23 -19 -75 -19 -2361 -19 -2286 0 -2338 0 -2361
19 -24 19 -24 21 -27 255 l-3 236 2391 0 2391 0 -3 -236z m-1778 -466 c0 -7
14 -119 30 -248 16 -129 30 -238 30 -242 0 -5 -301 -8 -670 -8 -368 0 -670 3
-670 8 0 4 14 113 30 242 16 129 30 241 30 248 0 9 129 12 610 12 481 0 610
-3 610 -12z m240 -753 l0 -85 -850 0 -850 0 0 85 0 85 850 0 850 0 0 -85z"/>
<path d="M1659 4260 c-43 -13 -74 -38 -97 -79 l-22 -39 2 -739 3 -738 24 -34
c13 -18 42 -42 65 -52 39 -18 93 -19 1269 -19 1015 0 1233 2 1260 14 42 17 83
66 97 114 14 53 14 1403 -1 1457 -14 50 -64 100 -114 114 -47 13 -2444 14
-2486 1z m2191 -174 c-8 -7 -219 -135 -468 -285 -295 -176 -463 -271 -481
-271 -17 0 -186 96 -486 276 -253 152 -464 280 -469 285 -6 5 372 9 954 9 815
0 962 -2 950 -14z m-1377 -516 c6 -5 -505 -491 -720 -684 l-43 -38 0 590 0
591 378 -226 c207 -124 380 -229 385 -233z m1627 -131 c0 -351 -4 -589 -9
-587 -10 3 -771 712 -768 714 4 4 772 464 775 464 1 0 2 -266 2 -591z m-1373
-19 c97 -55 129 -64 208 -58 42 4 72 16 141 57 48 28 90 50 94 49 5 -2 184
-167 400 -368 l391 -365 -531 -3 c-291 -1 -768 -1 -1059 0 l-528 3 391 367
c215 202 394 367 398 367 4 1 47 -21 95 -49z"/>
<path d="M340 3925 l0 -85 85 0 85 0 0 85 0 85 -85 0 -85 0 0 -85z"/>
<path d="M680 3925 l0 -85 345 0 345 0 0 85 0 85 -345 0 -345 0 0 -85z"/>
<path d="M510 3585 l0 -85 85 0 85 0 0 85 0 85 -85 0 -85 0 0 -85z"/>
<path d="M850 3585 l0 -85 260 0 261 0 -3 83 -3 82 -257 3 -258 2 0 -85z"/>
<path d="M510 3245 l0 -85 170 0 170 0 0 85 0 85 -170 0 -170 0 0 -85z"/>
<path d="M1027 3324 c-4 -4 -7 -43 -7 -86 l0 -78 175 0 176 0 -3 83 -3 82
-166 3 c-91 1 -168 -1 -172 -4z"/>
<path d="M340 2905 l0 -85 85 0 85 0 0 85 0 85 -85 0 -85 0 0 -85z"/>
<path d="M687 2983 c-4 -3 -7 -42 -7 -85 l0 -78 345 0 346 0 -3 83 -3 82 -336
3 c-184 1 -338 -1 -342 -5z"/>
<path d="M4270 1625 l0 -85 170 0 170 0 0 85 0 85 -170 0 -170 0 0 -85z"/>
</g>
</svg>
