<?xml version="1.0" standalone="no"?>
<!DOCTYPE svg PUBLIC "-//W3C//DTD SVG 20010904//EN"
 "http://www.w3.org/TR/2001/REC-SVG-20010904/DTD/svg10.dtd">
<svg version="1.0" xmlns="http://www.w3.org/2000/svg"
 width="512.000000pt" height="512.000000pt" viewBox="0 0 512.000000 512.000000"
 preserveAspectRatio="xMidYMid meet">

<g transform="translate(0.000000,512.000000) scale(0.100000,-0.100000)"
fill="#000000" stroke="none">
<path d="M3754 5104 c-60 -22 -118 -76 -145 -136 l-24 -53 0 -565 c0 -552 0
-566 21 -610 26 -58 76 -108 134 -134 44 -21 58 -21 610 -21 l565 0 53 24 c29
13 68 42 87 64 67 77 66 71 63 698 -3 528 -4 566 -22 599 -26 49 -74 98 -121
123 -40 22 -47 22 -610 24 -481 1 -576 -1 -611 -13z m1167 -183 l29 -29 0
-227 0 -226 -91 3 -90 3 -18 52 c-63 187 -270 308 -467 273 -118 -20 -218 -84
-283 -180 -23 -35 -46 -83 -52 -106 l-11 -44 -94 0 -94 0 0 203 c0 111 5 219
11 239 19 69 2 67 597 68 l534 0 29 -29z m-466 -335 c197 -83 197 -378 0 -467
-87 -40 -221 -13 -287 57 -82 88 -91 238 -19 330 71 91 200 124 306 80z m-519
-333 c21 -61 67 -147 100 -183 91 -100 199 -144 340 -138 79 3 100 8 160 38
109 54 184 142 223 263 l13 37 89 0 89 0 0 -220 c0 -255 -4 -272 -70 -290 -26
-7 -211 -10 -555 -8 l-515 3 -27 28 -28 27 -3 216 c-2 119 -1 222 2 230 4 11
27 14 91 14 73 0 87 -3 91 -17z"/>
<path d="M154 4671 c-51 -23 -104 -75 -130 -127 -18 -37 -19 -65 -19 -619 0
-554 1 -582 19 -619 23 -46 74 -99 119 -123 29 -17 79 -18 609 -21 572 -3 578
-2 628 19 27 12 66 39 86 61 72 80 69 49 69 678 0 453 -3 573 -14 604 -19 54
-77 115 -136 142 l-50 24 -570 0 c-534 0 -573 -2 -611 -19z m1183 -175 l28
-24 0 -547 0 -547 -28 -24 -28 -24 -542 0 c-572 1 -560 0 -585 47 -17 31 -17
1065 0 1096 25 47 13 46 585 47 l542 0 28 -24z"/>
<path d="M846 4335 c-73 -26 -145 -119 -146 -188 0 -25 -3 -27 -27 -21 -58 14
-107 35 -163 69 -80 49 -128 45 -158 -12 -29 -54 -4 -233 46 -331 l30 -58 -39
-41 c-44 -48 -54 -78 -40 -116 20 -53 58 -59 321 -55 234 4 235 4 297 32 94
43 156 117 183 216 9 32 29 63 71 107 81 85 79 116 -18 191 -35 29 -53 51 -58
73 -10 44 -89 121 -141 137 -53 16 -109 15 -158 -3z m115 -165 c11 -6 24 -30
30 -55 7 -29 22 -55 41 -70 l30 -25 -30 -34 c-31 -36 -36 -47 -46 -107 -4 -21
-16 -49 -27 -63 -38 -48 -74 -59 -206 -64 l-123 -4 0 34 c0 23 -11 49 -38 84
-39 52 -69 111 -60 119 3 3 25 -2 49 -10 24 -9 77 -20 117 -26 131 -18 172 14
172 137 0 82 35 114 91 84z"/>
<path d="M1710 4605 l0 -85 850 0 850 0 0 85 0 85 -850 0 -850 0 0 -85z"/>
<path d="M1945 4156 c-67 -31 -120 -92 -140 -160 -14 -47 -15 -127 -13 -607 3
-550 3 -554 25 -595 29 -55 78 -103 128 -125 37 -17 79 -19 615 -19 536 0 578
2 615 19 50 22 99 70 128 125 22 41 22 45 25 595 2 480 1 560 -13 607 -20 68
-73 129 -140 160 l-50 24 -565 0 -565 0 -50 -24z m1182 -170 l28 -24 0 -545 0
-545 -24 -26 -24 -26 -547 0 -547 0 -24 26 -24 26 0 545 0 545 28 24 28 24
539 0 539 0 28 -24z"/>
<path d="M2517 3829 c-35 -21 -47 -71 -47 -204 l0 -125 -85 0 -85 0 0 -85 0
-85 85 0 85 0 0 -170 0 -170 90 0 90 0 0 170 0 170 85 0 85 0 0 85 0 85 -85 0
-85 0 0 85 0 85 85 0 85 0 0 85 0 85 -142 0 c-83 0 -151 -5 -161 -11z"/>
<path d="M3580 2816 l0 -594 -137 -4 c-123 -3 -144 -6 -193 -29 -110 -51 -174
-151 -174 -269 0 -69 27 -146 65 -186 l21 -22 -37 -55 c-25 -38 -39 -73 -47
-120 -10 -60 -9 -74 11 -134 l22 -68 -23 -15 c-78 -51 -120 -113 -137 -202 -8
-44 -1 -122 14 -160 7 -17 -13 -18 -329 -18 l-336 0 0 48 c0 58 -31 190 -61
257 -37 85 -106 181 -184 253 l-75 70 66 38 c152 89 253 257 254 422 0 43 -5
57 -25 77 l-24 25 -355 0 -356 0 -2 428 -3 427 -82 3 -83 3 -2 -428 -3 -427
-44 -8 c-56 -10 -121 -48 -155 -92 -58 -77 -56 -34 -56 -1077 l0 -959 85 0 85
0 0 946 c0 699 3 951 12 967 24 47 22 46 436 47 l393 0 -7 -22 c-23 -75 -96
-158 -172 -195 -55 -27 -64 -28 -242 -33 -206 -6 -232 -13 -245 -69 -8 -35 16
-87 44 -96 10 -3 54 -10 97 -15 153 -17 277 -80 382 -195 102 -111 140 -211
151 -394 12 -182 -9 -171 326 -171 l264 0 -14 -41 c-57 -161 53 -346 226 -380
l59 -12 0 -168 0 -169 85 0 85 0 0 170 0 170 203 0 c111 0 222 5 247 11 146
33 251 189 223 332 -6 28 -13 59 -17 68 -5 12 4 18 47 28 57 12 132 58 165
101 70 90 85 217 37 314 -11 21 -12 32 -5 34 38 13 98 75 127 131 27 52 33 74
33 126 0 72 -28 161 -60 190 -26 23 -25 26 9 77 41 62 54 110 49 186 -6 113
-72 209 -172 253 -41 18 -75 23 -173 27 l-123 4 0 594 0 594 -85 0 -85 0 0
-594z m397 -783 c96 -45 96 -181 0 -226 -30 -15 -75 -17 -334 -17 -278 0 -300
1 -330 20 -43 26 -68 66 -68 110 0 44 25 84 68 110 30 19 52 20 330 20 259 0
304 -2 334 -17z m3 -428 c89 -46 95 -168 10 -219 -24 -14 -70 -16 -349 -16
l-320 0 -35 35 c-62 62 -54 148 17 194 30 20 48 21 340 21 253 0 313 -3 337
-15z m-95 -450 c59 -60 47 -156 -25 -199 -24 -14 -69 -16 -340 -16 -271 0
-316 2 -340 16 -72 43 -84 139 -25 199 l36 35 329 0 329 0 36 -35z m-273 -410
c31 -23 58 -72 58 -105 0 -33 -27 -82 -58 -105 -25 -19 -45 -20 -335 -23 -269
-2 -312 -1 -342 14 -69 32 -94 115 -55 179 39 63 50 65 395 62 292 -2 312 -3
337 -22z"/>
<path d="M2472 1538 l3 -83 85 0 85 0 3 83 3 82 -91 0 -91 0 3 -82z"/>
</g>
</svg>
