<?xml version="1.0" standalone="no"?>
<!DOCTYPE svg PUBLIC "-//W3C//DTD SVG 20010904//EN"
 "http://www.w3.org/TR/2001/REC-SVG-20010904/DTD/svg10.dtd">
<svg version="1.0" xmlns="http://www.w3.org/2000/svg"
 width="512.000000pt" height="512.000000pt" viewBox="0 0 512.000000 512.000000"
 preserveAspectRatio="xMidYMid meet">

<g transform="translate(0.000000,512.000000) scale(0.100000,-0.100000)"
fill="#000000" stroke="none">
<path d="M445 5110 c-194 -40 -352 -179 -417 -368 l-23 -67 0 -2115 0 -2115
23 -66 c57 -166 185 -294 350 -351 l67 -23 2115 0 2115 0 67 23 c165 57 293
185 350 351 l23 66 0 2115 0 2115 -23 67 c-57 163 -178 286 -348 350 l-59 23
-2100 1 c-1155 1 -2118 -2 -2140 -6z m4210 -307 c63 -21 127 -85 148 -148 15
-41 17 -99 17 -392 l0 -343 -2260 0 -2260 0 0 343 c0 392 3 410 75 482 79 80
-112 73 2181 74 1884 1 2054 0 2099 -16z m165 -2736 c0 -1745 6 -1612 -75
-1692 -81 -82 112 -75 -2185 -75 -2297 0 -2104 -7 -2185 75 -81 80 -75 -53
-75 1692 l0 1553 2260 0 2260 0 0 -1553z"/>
<path d="M3088 4499 c-43 -22 -78 -81 -78 -129 0 -17 9 -49 20 -70 23 -45 80
-80 130 -80 50 0 107 35 130 80 11 21 20 53 20 70 0 50 -35 107 -80 130 -49
25 -94 25 -142 -1z"/>
<path d="M3688 4499 c-43 -22 -78 -81 -78 -129 0 -17 9 -49 20 -70 23 -45 80
-80 130 -80 17 0 49 9 70 20 45 23 80 80 80 130 0 50 -35 107 -80 130 -49 25
-94 25 -142 -1z"/>
<path d="M4288 4499 c-43 -22 -78 -81 -78 -129 0 -17 9 -49 20 -70 23 -45 80
-80 130 -80 50 0 107 35 130 80 11 21 20 53 20 70 0 50 -35 107 -80 130 -49
25 -94 25 -142 -1z"/>
<path d="M1115 3054 c-147 -33 -262 -119 -322 -242 -26 -52 -28 -67 -28 -167
0 -101 2 -114 28 -163 35 -67 89 -126 141 -157 23 -13 131 -60 239 -104 211
-85 261 -114 283 -167 12 -29 12 -39 0 -66 -42 -100 -166 -140 -311 -102 -72
18 -129 50 -195 109 -58 51 -109 64 -164 41 -110 -46 -128 -162 -40 -256 127
-136 348 -220 544 -207 419 27 625 466 346 740 -69 68 -113 91 -354 188 -108
43 -203 86 -209 96 -18 24 -16 84 5 109 33 42 81 58 172 59 73 0 93 -4 140
-27 30 -16 73 -42 96 -59 114 -85 270 16 234 152 -14 50 -47 89 -117 135 -132
87 -331 123 -488 88z"/>
<path d="M2072 3053 c-18 -9 -43 -30 -55 -47 l-22 -31 -3 -643 c-3 -712 -5
-687 62 -735 30 -21 39 -22 326 -25 330 -3 342 -1 387 67 48 71 20 175 -57
213 -30 15 -64 18 -227 18 l-193 0 0 149 0 150 184 3 c202 3 211 6 260 72 29
38 29 114 0 152 -49 66 -58 69 -260 72 l-184 3 0 150 0 149 193 0 c216 0 243
7 284 69 48 71 20 175 -57 213 -31 16 -68 18 -320 18 -242 0 -290 -3 -318 -17z"/>
<path d="M3556 3060 c-233 -42 -439 -196 -541 -404 -63 -127 -79 -197 -79
-336 0 -140 16 -209 81 -340 39 -80 60 -109 137 -185 101 -100 190 -154 326
-196 98 -31 290 -33 390 -5 254 70 453 263 532 516 33 108 33 312 0 420 -78
251 -279 448 -527 515 -71 19 -250 28 -319 15z m239 -306 c194 -50 335 -233
335 -434 0 -219 -163 -409 -380 -443 -295 -45 -560 218 -512 509 44 265 301
435 557 368z"/>
<path d="M688 1099 c-43 -22 -78 -81 -78 -129 0 -50 35 -107 80 -130 39 -20
55 -20 1870 -20 1815 0 1831 0 1870 20 45 23 80 80 80 130 0 50 -35 107 -80
130 -39 20 -54 20 -1872 20 -1805 -1 -1834 -1 -1870 -21z"/>
</g>
</svg>
