<?xml version="1.0" standalone="no"?>
<!DOCTYPE svg PUBLIC "-//W3C//DTD SVG 20010904//EN"
 "http://www.w3.org/TR/2001/REC-SVG-20010904/DTD/svg10.dtd">
<svg version="1.0" xmlns="http://www.w3.org/2000/svg"
 width="512.000000pt" height="512.000000pt" viewBox="0 0 512.000000 512.000000"
 preserveAspectRatio="xMidYMid meet">

<g transform="translate(0.000000,512.000000) scale(0.100000,-0.100000)"
fill="#000000" stroke="none">
<path d="M0 2560 l0 -2270 2560 0 2560 0 0 2270 0 2270 -2560 0 -2560 0 0
-2270z m3388 1962 c-1 -5 -129 -160 -283 -345 l-279 -337 -1263 0 -1263 0 0
345 0 345 1546 0 c850 0 1544 -4 1542 -8z m1432 -1962 l0 -1970 -2260 0 -2260
0 0 1475 0 1475 1334 0 1333 0 404 488 c221 268 408 490 414 494 5 4 241 8
523 8 l512 0 0 -1970z"/>
<path d="M642 4183 l3 -148 148 -3 147 -3 0 151 0 150 -150 0 -151 0 3 -147z"/>
<path d="M1200 4180 l0 -151 148 3 147 3 3 148 3 147 -151 0 -150 0 0 -150z"/>
<path d="M1750 4180 l0 -150 150 0 150 0 0 150 0 150 -150 0 -150 0 0 -150z"/>
<path d="M1700 2300 c0 -323 4 -518 11 -552 6 -29 27 -86 46 -126 41 -88 139
-192 224 -240 69 -39 192 -72 268 -72 207 1 407 123 496 303 62 126 65 156 65
700 l0 487 -150 0 -150 0 0 -478 c0 -536 -2 -550 -67 -623 -119 -131 -322
-111 -411 40 l-27 46 -3 508 -3 507 -149 0 -150 0 0 -500z"/>
<path d="M3120 2060 l0 -740 150 0 150 0 0 740 0 740 -150 0 -150 0 0 -740z"/>
</g>
</svg>
