<?xml version="1.0" standalone="no"?>
<!DOCTYPE svg PUBLIC "-//W3C//DTD SVG 20010904//EN"
 "http://www.w3.org/TR/2001/REC-SVG-20010904/DTD/svg10.dtd">
<svg version="1.0" xmlns="http://www.w3.org/2000/svg"
 width="512.000000pt" height="512.000000pt" viewBox="0 0 512.000000 512.000000"
 preserveAspectRatio="xMidYMid meet">

<g transform="translate(0.000000,512.000000) scale(0.100000,-0.100000)"
fill="#000000" stroke="none">
<path d="M243 5106 c-88 -28 -176 -107 -216 -194 l-22 -47 0 -2305 0 -2305 22
-47 c30 -66 105 -143 172 -175 l56 -28 2305 0 2305 0 56 28 c67 32 142 109
172 175 l22 47 0 2305 0 2305 -27 55 c-35 71 -97 133 -167 168 l-56 27 -2290
2 c-1865 1 -2298 -1 -2332 -11z m4594 -167 c15 -5 41 -22 57 -37 51 -48 56
-74 56 -277 l0 -185 -2390 0 -2390 0 0 184 c0 196 5 223 48 270 56 59 -106 55
2339 56 1567 0 2260 -3 2280 -11z m113 -2648 c0 -1375 -3 -1988 -11 -2008 -14
-38 -57 -83 -96 -99 -48 -21 -4518 -21 -4566 0 -39 16 -82 61 -96 99 -8 20
-11 633 -11 2008 l0 1979 2390 0 2390 0 0 -1979z"/>
<path d="M369 4751 c-31 -31 -36 -59 -17 -94 20 -39 40 -46 120 -47 74 0 77 1
103 32 32 38 29 81 -11 116 -21 18 -37 22 -95 22 -65 0 -73 -2 -100 -29z"/>
<path d="M815 4768 c-51 -29 -61 -93 -20 -133 21 -22 33 -25 100 -25 67 0 79
3 100 25 41 40 33 105 -16 130 -33 18 -136 19 -164 3z"/>
<path d="M1242 4770 c-27 -11 -51 -62 -44 -96 8 -45 46 -64 129 -64 65 0 77 3
98 25 35 34 33 78 -4 116 -27 26 -36 29 -93 28 -35 0 -73 -4 -86 -9z"/>
<path d="M4145 4768 c-52 -28 -62 -92 -20 -133 l24 -25 288 0 c302 1 307 1
331 47 19 35 14 63 -17 94 l-29 29 -279 0 c-182 -1 -285 -4 -298 -12z"/>
<path d="M949 3657 c-90 -34 -145 -90 -169 -172 -8 -29 -10 -222 -8 -690 l3
-650 29 -85 c51 -152 114 -256 216 -359 260 -260 654 -322 985 -156 208 104
356 281 436 520 l24 70 3 665 c3 750 6 716 -74 796 -103 103 -272 95 -368 -18
-66 -77 -66 -75 -66 -737 l0 -596 -24 -57 c-45 -110 -124 -180 -240 -213 -157
-45 -330 49 -397 215 -11 28 -15 157 -19 665 -6 700 -1 656 -74 733 -64 68
-177 99 -257 69z m132 -186 l29 -29 0 -596 c0 -396 4 -613 11 -648 53 -255
314 -439 568 -399 199 31 366 180 425 380 14 47 16 135 16 650 0 460 3 602 13
621 26 52 95 62 137 20 19 -19 20 -36 20 -643 0 -688 1 -675 -65 -815 -82
-175 -223 -298 -410 -359 -66 -21 -100 -26 -195 -27 -206 -1 -339 53 -486 199
-77 75 -98 104 -132 175 -72 152 -72 153 -72 839 l0 609 31 26 c40 34 74 33
110 -3z"/>
<path d="M2814 3654 c-121 -44 -189 -178 -159 -314 4 -17 123 -197 266 -401
142 -204 259 -374 259 -379 0 -5 -114 -172 -254 -372 -139 -200 -258 -378
-265 -397 -21 -62 -14 -143 17 -202 86 -166 311 -182 429 -31 21 27 117 162
213 300 96 137 178 248 182 246 3 -2 89 -122 190 -267 100 -144 198 -279 217
-300 116 -129 321 -108 408 40 36 62 43 162 16 224 -11 24 -131 202 -267 396
-135 193 -246 357 -246 363 0 6 111 170 246 363 136 194 256 372 267 396 23
53 20 157 -7 208 -23 45 -75 95 -122 118 -56 28 -165 27 -220 -2 -58 -31 -88
-68 -292 -360 -101 -145 -187 -265 -190 -267 -4 -2 -93 118 -197 267 -217 310
-233 331 -289 359 -52 27 -147 33 -202 12z m126 -164 c11 -6 123 -160 251
-343 127 -182 240 -340 251 -349 32 -28 89 -23 120 10 14 15 125 170 247 344
122 175 232 324 244 333 12 8 32 15 45 15 33 0 82 -52 82 -87 0 -21 -72 -131
-275 -422 -151 -216 -277 -401 -280 -412 -4 -10 -4 -27 0 -38 3 -10 129 -196
280 -412 303 -434 303 -434 243 -484 -37 -31 -79 -29 -114 8 -12 12 -124 168
-248 347 -157 225 -236 329 -256 339 -59 29 -70 16 -331 -356 -170 -243 -248
-347 -267 -354 -55 -21 -112 17 -112 75 0 28 45 99 271 421 148 213 274 398
279 411 6 15 6 34 0 49 -5 14 -119 181 -253 372 -317 451 -297 421 -297 457 0
63 66 105 120 76z"/>
<path d="M870 1271 c-82 -25 -151 -94 -175 -175 -19 -63 -19 -80 1 -147 20
-67 97 -148 160 -167 60 -18 3348 -18 3408 0 63 19 140 100 160 167 20 67 20
84 1 147 -18 60 -72 127 -129 157 l-41 22 -1680 2 c-924 1 -1691 -2 -1705 -6z
m3366 -185 c39 -33 39 -89 0 -122 l-27 -24 -1649 0 -1649 0 -27 24 c-21 18
-28 32 -28 61 0 29 7 43 28 61 l27 24 1649 0 1649 0 27 -24z"/>
</g>
</svg>
